<svg xmlns="http://www.w3.org/2000/svg" viewBox="0 0 512 512">
  <g>
    <path d="M 369.500 88.004 C 358.216 89.039, 347.825 91.137, 317.772 98.445 C 257.846 113.019, 254.646 113.070, 202 100.312 C 164.472 91.218, 151.937 88.902, 136.927 88.288 C 109.350 87.160, 91.082 93.709, 72.208 111.487 C 46.005 136.170, 27.288 174.044, 13.640 230 C 4.752 266.438, 1.096 292.213, 0.291 324.110 C -0.550 357.420, 2.144 379.234, 9.018 394.774 C 14.119 406.305, 23.706 416.212, 34.651 421.262 C 38.953 423.247, 41.080 423.497, 53.500 423.472 C 65.605 423.447, 68.380 423.127, 74 421.107 C 97.157 412.784, 123.146 395.555, 154 368.072 C 160.875 361.948, 169.621 354.862, 173.435 352.326 C 185.718 344.157, 203.936 337.755, 226 333.854 C 236.098 332.068, 275.902 332.068, 286 333.854 C 308.064 337.755, 326.282 344.157, 338.565 352.326 C 342.379 354.862, 351.125 361.948, 358 368.072 C 389.077 395.754, 415.897 413.522, 437.500 420.741 C 444.556 423.099, 447.095 423.420, 459.021 423.457 C 472.378 423.499, 472.625 423.459, 479.352 420.148 C 483.332 418.188, 488.403 414.553, 491.558 411.399 C 501.307 401.650, 509.126 381.733, 510.670 362.716 C 511.017 358.434, 511.684 354.695, 512.151 354.407 C 513.388 353.642, 513.240 310, 512 310 C 511.450 310, 511 307.811, 511 305.135 C 511 299.391, 507.889 275.782, 505.104 260.385 C 496.631 213.552, 481.743 169.855, 464.861 142.272 C 439.879 101.457, 409.748 84.310, 369.500 88.004 M 127 113.010 C 104.372 115.416, 86.436 127.941, 70.447 152.500 C 42.025 196.157, 20.379 289.579, 24.745 349.746 C 27.754 391.217, 39.585 404.860, 65.645 396.908 C 84.561 391.135, 105.738 377.026, 138 348.698 C 145.425 342.179, 154.200 335.062, 157.500 332.882 C 203.551 302.462, 286.655 298.729, 338.500 324.751 C 351.039 331.045, 356.380 334.902, 373 349.663 C 398.496 372.308, 414.280 383.802, 431.915 392.565 C 447.883 400.499, 461.429 402.283, 469.554 397.521 C 477.169 393.059, 483.136 380.638, 486.138 363 C 488.063 351.687, 487.794 315.574, 485.653 298.085 C 473.608 199.672, 442.159 131.738, 401.876 117.115 C 383.042 110.278, 367.045 111.412, 319.707 122.939 C 261.822 137.034, 250.513 137.121, 196.500 123.891 C 154.244 113.540, 141.208 111.499, 127 113.010 M 128.746 152.027 C 114.911 155.504, 102.981 167.840, 100.604 181.126 C 100.024 184.374, 99.567 184.815, 96.228 185.361 C 81.286 187.805, 67.738 201.936, 66.096 216.788 C 63.850 237.115, 76.669 255.667, 95.132 258.807 C 99.290 259.514, 99.554 259.765, 100.621 264.025 C 102.566 271.790, 104.758 275.864, 109.935 281.338 C 117.445 289.279, 124.237 292.334, 135.433 292.807 C 145.971 293.252, 152.747 291.264, 160.267 285.522 C 165.311 281.671, 171.107 273.461, 172.992 267.500 C 175.520 259.500, 175.849 259, 178.586 259 C 180.031 259, 184.054 257.645, 187.525 255.988 C 205.971 247.185, 213.675 224.164, 204.471 205.352 C 199.824 195.854, 188.845 187.374, 178.741 185.479 C 175.754 184.919, 174.862 184.232, 174.401 182.137 C 171.476 168.852, 164.770 160.209, 153.111 154.701 C 146.099 151.387, 135.793 150.256, 128.746 152.027 M 359.558 155.432 C 345.637 160.602, 340.088 175.942, 347.539 188.657 C 354.842 201.118, 372.695 203.305, 383 193 C 391.524 184.476, 391.809 170.150, 383.633 161.153 C 378.337 155.325, 367.062 152.646, 359.558 155.432 M 131.449 176.551 C 126.668 178.911, 124.837 183.047, 124.233 192.852 C 123.448 205.593, 120.302 208.995, 109.300 209.006 C 101.539 209.013, 96.513 210.534, 93.496 213.787 C 88.588 219.081, 89.309 226.558, 95.206 231.520 C 97.637 233.565, 99.235 234.004, 104.327 234.024 C 112.815 234.057, 117.851 235.397, 120.883 238.429 C 123.149 240.695, 123.534 242.122, 124.151 250.559 C 124.919 261.065, 126.150 263.901, 131.304 267.044 C 135.116 269.368, 137.878 269.496, 142.510 267.560 C 147.717 265.385, 149.992 260.853, 149.996 252.651 C 150.003 239.846, 153.771 235.870, 166.488 235.252 C 170.895 235.038, 175.749 234.384, 177.276 233.799 C 183.829 231.289, 186.669 221.106, 182.429 215.324 C 179.072 210.746, 174.494 209.003, 165.827 209.002 C 159.051 209, 157.797 208.700, 155.106 206.436 C 151.496 203.398, 150.013 198.735, 150.006 190.398 C 149.995 178.347, 141.163 171.757, 131.449 176.551 M 317.326 200.098 C 309.209 201.599, 304.589 205.270, 301.084 213 C 291.970 233.103, 314.265 252.825, 333.417 241.602 C 340.021 237.731, 343.323 232.298, 343.820 224.482 C 344.300 216.947, 342.840 212.027, 338.739 207.355 C 333.327 201.192, 325.589 198.569, 317.326 200.098 M 408 199.948 C 397.270 202.078, 389.787 211.108, 389.814 221.894 C 389.838 231.751, 394.074 238.729, 402.383 242.598 C 411.735 246.952, 420.911 245.363, 428.137 238.137 C 435.384 230.890, 436.953 221.737, 432.564 212.310 C 429.786 206.343, 423.755 201.381, 418.132 200.436 C 416.134 200.100, 413.825 199.697, 413 199.539 C 412.175 199.382, 409.925 199.565, 408 199.948 M 357.500 246.866 C 343.948 253.038, 340.067 270.708, 349.773 282.048 C 354.359 287.406, 359.914 289.956, 367 289.956 C 386.328 289.956, 396.768 267.603, 384.263 252.994 C 382.255 250.648, 378.787 247.899, 376.556 246.886 C 371.306 244.502, 362.711 244.492, 357.500 246.866 M 0.428 333 C 0.428 345.375, 0.571 350.438, 0.747 344.250 C 0.922 338.063, 0.922 327.938, 0.747 321.750 C 0.571 315.563, 0.428 320.625, 0.428 333" stroke="none" fill="currentColor" fill-rule="evenodd">
    </path>
  </g>
</svg>
